<?xml version="1.0" standalone="no"?>
<!DOCTYPE svg PUBLIC "-//W3C//DTD SVG 20010904//EN"
 "http://www.w3.org/TR/2001/REC-SVG-20010904/DTD/svg10.dtd">
<svg version="1.0" xmlns="http://www.w3.org/2000/svg"
 width="139.000000pt" height="139.000000pt" viewBox="0 0 139.000000 139.000000"
 preserveAspectRatio="xMidYMid meet">
<metadata>
Created by potrace 1.11, written by Peter Selinger 2001-2013
</metadata>
<g transform="translate(0.000000,139.000000) scale(0.100000,-0.100000)"
fill="#000000" stroke="none">
<path d="M679 1331 c-20 -16 -22 -23 -14 -46 15 -42 50 -51 80 -20 26 25 25
50 -4 72 -22 17 -35 16 -62 -6z"/>
<path d="M980 1294 c-27 -8 -40 -38 -27 -64 18 -35 53 -44 77 -20 25 25 25 45
0 70 -20 20 -23 21 -50 14z"/>
<path d="M397 1239 c-28 -39 9 -88 54 -74 27 9 42 50 29 76 -15 26 -64 25 -83
-2z"/>
<path d="M702 1181 c-8 -4 -12 -19 -10 -32 4 -34 53 -40 62 -7 4 15 0 27 -11
36 -20 14 -24 15 -41 3z"/>
<path d="M928 1133 c-24 -6 -30 -30 -12 -48 20 -19 38 -19 55 1 9 11 10 20 3
32 -12 18 -22 21 -46 15z"/>
<path d="M523 1107 c-27 -12 -30 -43 -5 -56 23 -12 52 4 52 28 0 28 -21 40
-47 28z"/>
<path d="M1194 1112 c-24 -15 -26 -50 -5 -71 35 -35 78 -22 86 26 6 37 -48 67
-81 45z"/>
<path d="M213 1059 c-56 -21 -27 -110 31 -95 26 6 43 43 33 70 -9 23 -39 35
-64 25z"/>
<path d="M1083 998 c-13 -21 -12 -36 2 -48 18 -15 52 -4 57 18 9 33 -41 57
-59 30z"/>
<path d="M378 963 c-31 -7 -33 -55 -3 -67 19 -7 57 28 49 47 -7 18 -22 25 -46
20z"/>
<path d="M123 788 c-49 -24 -20 -107 31 -92 43 13 56 54 27 83 -24 24 -27 24
-58 9z"/>
<path d="M292 767 c-15 -18 -4 -57 17 -57 28 0 43 16 39 41 -4 28 -38 38 -56
16z"/>
<path d="M331 552 c-12 -23 4 -52 28 -52 35 0 49 42 21 60 -23 15 -38 12 -49
-8z"/>
<path d="M166 504 c-9 -8 -16 -26 -16 -38 0 -53 76 -64 93 -13 16 50 -40 88
-77 51z"/>
<path d="M1052 428 c-30 -30 6 -80 38 -55 21 17 23 36 6 53 -18 17 -28 18 -44
2z"/>
<path d="M477 395 c-23 -17 -22 -42 4 -55 15 -9 24 -8 35 1 34 28 -2 81 -39
54z"/>
<path d="M1144 325 c-13 -13 -24 -29 -24 -35 0 -15 38 -50 55 -50 18 0 55 35
55 53 0 18 -21 43 -43 51 -12 4 -27 -3 -43 -19z"/>
<path d="M859 318 c-7 -14 -7 -24 2 -34 27 -33 81 2 56 37 -16 21 -46 20 -58
-3z"/>
<path d="M656 315 c-10 -11 -13 -22 -7 -37 10 -27 35 -31 55 -9 14 15 14 19 0
39 -18 26 -27 27 -48 7z"/>
<path d="M348 288 c-28 -23 -29 -48 -3 -73 25 -26 50 -25 73 3 17 22 15 39 -8
62 -23 23 -40 25 -62 8z"/>
<path d="M890 181 c-25 -47 -2 -85 47 -79 20 2 30 11 38 32 8 24 6 31 -14 47
-30 24 -58 24 -71 0z"/>
<path d="M608 169 c-36 -21 -12 -89 32 -89 45 0 69 69 31 90 -24 12 -41 12
-63 -1z"/>
</g>
</svg>
